# xmcd CD database file generated by Grip 3.3.1
# 
# Track frame offsets:
#       150
#       5392
#       35437
#       53090
#       77336
#       98402
#       126760
#       155869
#       186685
#       198622
#       228713
#       246493
#       254168
#       275450
#       292827
#       317774
# 
# Disc length: 4442 seconds
# 
# Revision: 2
# Processed by: cddbd v1.5.2PL0 Copyright (c) Steve Scherf et al.
# Submitted via: Grip 3.3.1
# 
DISCID=e7115810
DTITLE=Guy Forsyth - Unrepentant Schizophrenic America Tails
DYEAR=2006
DGENRE=Blues
TTITLE0=Democracy
TTITLE1=The Monkey Speaks His Mind
TTITLE2=Eureka Street Drag
TTITLE3=Poor Boy
TTITLE4=Don't Stand Still
TTITLE5=Mojo Boogie
TTITLE6=Summertime
TTITLE7=Alligators In The 9th Ward
TTITLE8=Crossroads
TTITLE9=Play To Lose
TTITLE10=Laredo
TTITLE11=I'm Going Home
TTITLE12=Run On
TTITLE13=Come Back Baby
TTITLE14=I Won't Go On -- Gimme Some Money
TTITLE15=Auld Lang Syne
EXTD=
EXTT0=
EXTT1=
EXTT2=
EXTT3=
EXTT4=
EXTT5=
EXTT6=
EXTT7=
EXTT8=
EXTT9=
EXTT10=
EXTT11=
EXTT12=
EXTT13=
EXTT14=
EXTT15=
PLAYORDER=
